<svg width="20" height="21" viewBox="0 0 20 21" fill="none" xmlns="http://www.w3.org/2000/svg">
<path d="M19.583 14.6667L15.4163 18.8333L12.4997 15.9167L13.7497 14.6667L15.4163 16.3333L18.333 13.4167L19.583 14.6667ZM9.99967 8C10.6627 8 11.2986 8.26339 11.7674 8.73223C12.2363 9.20107 12.4997 9.83696 12.4997 10.5C12.4997 11.163 12.2363 11.7989 11.7674 12.2678C11.2986 12.7366 10.6627 13 9.99967 13C9.33663 13 8.70075 12.7366 8.23191 12.2678C7.76307 11.7989 7.49967 11.163 7.49967 10.5C7.49967 9.83696 7.76307 9.20107 8.23191 8.73223C8.70075 8.26339 9.33663 8 9.99967 8ZM9.99967 4.25C14.1663 4.25 17.7247 6.84167 19.1663 10.5C18.958 11.0417 18.6997 11.55 18.3997 12.0417C17.9121 11.7467 17.376 11.5407 16.8163 11.4333L17.3497 10.5C16.6761 9.12474 15.6303 7.96604 14.3309 7.15562C13.0316 6.3452 11.531 5.91557 9.99967 5.91557C8.46834 5.91557 6.96772 6.3452 5.66841 7.15562C4.3691 7.96604 3.32322 9.12474 2.64967 10.5C3.32337 11.8751 4.36932 13.0335 5.66862 13.8437C6.96792 14.654 8.46845 15.0834 9.99967 15.0833L11.008 15.025C10.8913 15.4417 10.833 15.8833 10.833 16.3333V16.7167L9.99967 16.75C5.83301 16.75 2.27467 14.1583 0.833008 10.5C2.27467 6.84167 5.83301 4.25 9.99967 4.25Z" fill="#F26F10"/>
</svg>
