<svg width="13" height="13" viewBox="0 0 13 13" fill="none" xmlns="http://www.w3.org/2000/svg">
<path d="M9.23281 1.05994C9.59191 0.700972 10.0789 0.499357 10.5867 0.499451C11.0944 0.499544 11.5813 0.701339 11.9403 1.06044C12.2993 1.41955 12.5009 1.90654 12.5008 2.4143C12.5007 2.92205 12.2989 3.40897 11.9398 3.76794L11.2068 4.49994L11.4698 4.76194C11.6323 4.92445 11.7612 5.11737 11.8492 5.32971C11.9372 5.54204 11.9824 5.76961 11.9824 5.99944C11.9824 6.22927 11.9372 6.45685 11.8492 6.66918C11.7612 6.88151 11.6323 7.07444 11.4698 7.23694L10.3538 8.35294C10.2601 8.44683 10.1328 8.49963 10.0002 8.49972C9.86748 8.49981 9.74019 8.4472 9.64631 8.35344C9.55242 8.25969 9.49962 8.13248 9.49953 7.9998C9.49943 7.86711 9.55205 7.73983 9.64581 7.64594L10.7628 6.52994C10.8325 6.46029 10.8878 6.37759 10.9255 6.28657C10.9632 6.19554 10.9826 6.09797 10.9826 5.99944C10.9826 5.90091 10.9632 5.80334 10.9255 5.71232C10.8878 5.62129 10.8325 5.53859 10.7628 5.46894L10.4998 5.20794L4.54481 11.1619C4.36393 11.3428 4.14345 11.479 3.90081 11.5599L1.15781 12.4749C1.06968 12.5043 0.975142 12.5084 0.884773 12.487C0.794405 12.4656 0.711783 12.4195 0.646167 12.3538C0.580552 12.2881 0.534536 12.2054 0.513277 12.115C0.492018 12.0246 0.496356 11.93 0.525806 11.8419L1.43981 9.09994C1.52077 8.85733 1.65702 8.63686 1.83781 8.45594L9.23281 1.05994Z" fill="#A1A4AB"/>
</svg>
