<svg width="20" height="21" viewBox="0 0 20 21" fill="none" xmlns="http://www.w3.org/2000/svg">
<path d="M9.99967 4.25C8.0202 4.2481 6.08622 4.84365 4.45072 5.95876C2.81522 7.07388 1.55434 8.65663 0.833008 10.5C1.55434 12.3434 2.81522 13.9261 4.45072 15.0412C6.08622 16.1564 8.0202 16.7519 9.99967 16.75H10.9163C10.8518 16.4771 10.8238 16.1969 10.833 15.9167C10.8193 15.6088 10.8473 15.3004 10.9163 15H9.99967C8.47562 15.0265 6.97573 14.617 5.67655 13.8198C4.37737 13.0226 3.33298 11.8708 2.66634 10.5C3.321 9.11366 4.36024 7.94463 5.66034 7.13207C6.96044 6.3195 8.46665 5.89763 9.99967 5.91667C11.5327 5.89763 13.0389 6.3195 14.339 7.13207C15.6391 7.94463 16.6783 9.11366 17.333 10.5L16.9997 11.0833C17.5711 11.1829 18.1125 11.4109 18.583 11.75C18.8113 11.35 19.0064 10.9319 19.1663 10.5C18.445 8.65663 17.1841 7.07388 15.5486 5.95876C13.9131 4.84365 11.9792 4.2481 9.99967 4.25ZM9.99967 8C9.50522 8 9.02187 8.14663 8.61075 8.42133C8.19963 8.69603 7.87919 9.08648 7.68998 9.5433C7.50076 10.0001 7.45125 10.5028 7.54771 10.9877C7.64417 11.4727 7.88228 11.9181 8.23191 12.2678C8.58154 12.6174 9.027 12.8555 9.51195 12.952C9.9969 13.0484 10.4996 12.9989 10.9564 12.8097C11.4132 12.6205 11.8036 12.3001 12.0783 11.8889C12.3531 11.4778 12.4997 10.9945 12.4997 10.5C12.5113 10.1686 12.4546 9.83827 12.3331 9.52969C12.2116 9.22111 12.0278 8.94085 11.7933 8.70634C11.5588 8.47183 11.2786 8.2881 10.97 8.16658C10.6614 8.04507 10.3311 7.98836 9.99967 8ZM12.4997 15.0833V16.75H19.1663V15.0833H12.4997Z" fill="#646881"/>
</svg>
