<svg width="30" height="30" viewBox="0 0 30 30" fill="none" xmlns="http://www.w3.org/2000/svg">
<path d="M15.0003 4.125C16.2822 4.125 17.5116 4.63422 18.418 5.54065C19.3244 6.44708 19.8337 7.67645 19.8337 8.95833C19.8337 9.84042 19.6041 10.6621 19.1812 11.375H22.2503C23.3982 11.375 24.3649 12.1846 24.6066 13.26C27.0353 22.9388 27.0837 23.1925 27.0837 23.4583C27.0837 24.0993 26.829 24.714 26.3758 25.1672C25.9226 25.6204 25.3079 25.875 24.667 25.875H5.33366C4.69272 25.875 4.07803 25.6204 3.62482 25.1672C3.1716 24.714 2.91699 24.0993 2.91699 23.4583C2.91699 23.1925 2.96533 22.9388 5.39408 13.26C5.63574 12.1846 6.60241 11.375 7.75033 11.375H10.8195C10.3875 10.6432 10.1621 9.80806 10.167 8.95833C10.167 7.67645 10.6762 6.44708 11.5826 5.54065C12.4891 4.63422 13.7184 4.125 15.0003 4.125ZM15.0003 6.54167C14.3594 6.54167 13.7447 6.79628 13.2915 7.24949C12.8383 7.7027 12.5837 8.31739 12.5837 8.95833C12.5837 9.59927 12.8383 10.214 13.2915 10.6672C13.7447 11.1204 14.3594 11.375 15.0003 11.375C15.6413 11.375 16.256 11.1204 16.7092 10.6672C17.1624 10.214 17.417 9.59927 17.417 8.95833C17.417 8.31739 17.1624 7.7027 16.7092 7.24949C16.256 6.79628 15.6413 6.54167 15.0003 6.54167ZM7.75033 13.7917V23.4583H10.167V20.4375L11.3753 21.6458V23.4583H13.792V21.0417L11.3753 18.625L13.792 16.2083V13.7917H11.3753V15.6042L10.167 16.8125V13.7917H7.75033ZM18.6253 13.7917C17.2841 13.7917 16.2087 14.8671 16.2087 16.2083V21.0417C16.2087 22.3829 17.2841 23.4583 18.6253 23.4583H22.2503V17.4167H19.8337V21.0417H18.6253V16.2083H22.2503V13.7917H18.6253Z" fill="#E6E6E6"/>
</svg>
